<svg xmlns="http://www.w3.org/2000/svg" viewBox="0 0 1600 546.59"><g opacity="0.85"><path d="M2539.61,66.68C2195.72,191,1670.11-66,1470.16,57.76,1263.78,185.52,1018.35,481,743.57,483.62S265.36,317.71-261,717.34" fill="none" stroke="#8e1eff" stroke-miterlimit="10" stroke-width="0.25"/><path d="M2526.56,71.06c-349.85,134-874.15-122.18-1079.08-6.88C1236.42,183.28,995.67,464.69,724.8,473.42S243.45,321.11-257.66,700.28" fill="none" stroke="#8e1eff" stroke-miterlimit="10" stroke-width="0.25"/><path d="M2513.51,75.39C2157.68,219,1634.67-36.32,1424.78,70.55,1209.05,181,973,448.42,706,463.21s-484.46-138.77-960.39,220" fill="none" stroke="#8e1eff" stroke-miterlimit="10" stroke-width="0.25"/><path d="M2500.46,79.68c-361.79,153.13-883.52-101.33-1098.39-2.83C1181.67,178.72,950.3,432.18,687.19,453S199.62,327.67-251.15,666.13" fill="none" stroke="#8e1eff" stroke-miterlimit="10" stroke-width="0.25"/><path d="M2487.41,83.91c-367.76,162.53-888.39-91.4-1108-.82C1154.11,176,927.63,416,668.39,442.76S177.72,330.81-247.91,649.08" fill="none" stroke="#8e1eff" stroke-miterlimit="10" stroke-width="0.25"/><path d="M2474.36,88.1c-373.71,171.78-893.07-81.21-1117.67,1.17C1126.74,173.62,905,399.86,649.6,432.52S155.8,333.85-244.7,632" fill="none" stroke="#8e1eff" stroke-miterlimit="10" stroke-width="0.25"/><path d="M2461.31,92.22C2081.63,273.14,1563.58,21.14,1334,95.36c-234.6,75.85-451.72,288.41-703.2,326.88S133.9,336.74-241.47,614.9" fill="none" stroke="#8e1eff" stroke-miterlimit="10" stroke-width="0.25"/><path d="M2448.26,96.29c-385.62,189.87-902.38-61-1136.94,5.09C1072.09,168.82,859.63,367.76,612,412S112,339.57-238.25,597.84" fill="none" stroke="#8e1eff" stroke-miterlimit="10" stroke-width="0.25"/><path d="M2435.2,100.28c-391.58,198.7-907-51.05-1146.56,7C1044.78,166.4,837,351.78,593.22,401.69S90.11,342.21-235,580.74" fill="none" stroke="#8e1eff" stroke-miterlimit="10" stroke-width="0.25"/><path d="M2422.15,104.16C2024.61,311.52,1510.5,63,1266,113.1,1017.46,164,814.29,335.87,574.4,391.38S68.2,344.74-231.88,563.67" fill="none" stroke="#8e1eff" stroke-miterlimit="10" stroke-width="0.25"/><path d="M2409.12,108c-403.5,215.87-916.29-31.28-1165.81,10.83C990.2,161.54,791.64,320.05,555.64,381.07S46.31,347.14-228.67,546.59" fill="none" stroke="#8e1eff" stroke-miterlimit="10" stroke-width="0.25"/><path d="M2396.07,111.7c-409.43,224.15-920.9-21.56-1175.43,12.68C962.91,159.09,769,304.26,536.84,370.72S24.42,349.33-225.52,529.51" fill="none" stroke="#8e1eff" stroke-miterlimit="10" stroke-width="0.25"/><path d="M2383,115.27c-415.36,232.26-925.52-11.94-1185,14.54C935.63,156.58,746.31,288.56,518,360.36s-515.52-9-740.41,152.1" fill="none" stroke="#8e1eff" stroke-miterlimit="10" stroke-width="0.25"/><path d="M2370.52,119.51c-421.4,241.85-930.36-2.48-1194.93,16.42-267,19.06-451.74,138.8-676.21,216.36s-518.73,3.24-718.64,146.4" fill="none" stroke="#8e1eff" stroke-miterlimit="10" stroke-width="0.25"/><path d="M2358.31,124c-427.48,252.37-935.32,7-1205,18.31-271.73,11.42-451.88,119.3-672.58,202.93s-522,15.5-696.95,141.24" fill="none" stroke="#8e1eff" stroke-miterlimit="10" stroke-width="0.25"/><path d="M2346.11,128.31c-433.61,263.09-940.31,16.53-1215,20.24C854.66,152.28,679,248.25,462.13,338S-63.2,365.92-213.15,474.15" fill="none" stroke="#8e1eff" stroke-miterlimit="10" stroke-width="0.25"/><path d="M2333.91,132.4c-439.74,274.06-945.35,26.2-1225.11,22.2-281.21-4-452.27,80-665.38,176S-85.21,371-210.2,461.58" fill="none" stroke="#8e1eff" stroke-miterlimit="10" stroke-width="0.25"/><path d="M2321.72,136.31c-445.87,285.25-950.45,36.36-1235.25,24.17C800.44,149,634,220.56,424.67,323s-531.95,53-632,125.88" fill="none" stroke="#8e1eff" stroke-miterlimit="10" stroke-width="0.25"/><path d="M2309.52,140c-452,296.67-955.54,46.17-1245.42,26.17-290.79-19.43-452.63,40-658.24,148.85s-535.28,65.81-610.33,120.75" fill="none" stroke="#8e1eff" stroke-miterlimit="10" stroke-width="0.25"/><path d="M2297.33,143.58c-458.18,308.27-960.67,56.1-1255.63,28.19C746.1,144.23,588.84,191.44,387,306.88S-151.65,385.66-201.68,422.5" fill="none" stroke="#8e1eff" stroke-miterlimit="10" stroke-width="0.25"/><path d="M2285.14,147.05c-464.37,320.07-965.79,66.15-1265.88,30.25-300.37-35.72-453.06-.89-651.15,121.23s-542,91.9-567,110.43" fill="none" stroke="#8e1eff" stroke-miterlimit="10" stroke-width="0.25"/><path d="M2273,150.46c-470.56,332-971,76.33-1276.16,32.33S543.52,161.11,349.18,290-196.23,395.13-196.23,395.13" fill="none" stroke="#8e1eff" stroke-miterlimit="10" stroke-width="0.25"/><path d="M2273.53,143.87c-97.46,65-195.07,110.16-291.82,137.71-125.76,35.49-251,41.47-371.57,31.76a1495.75,1495.75,0,0,1-198-29.95c-71.91-15.71-139.75-35.47-203.1-53.67-74.68-21.45-143.37-40.89-205.15-51.42C938.07,167.21,877.8,158.67,823.46,157c-101.19-3.2-180.43,10.13-257.12,35.31-66.43,22-131.2,53.68-201.07,95.51-3.47,2.07-7,4.16-10.47,6.3-71.91,43.54-162.32,65.38-249.95,78.38-153.1,22.75-296.76,14-302.95,15.43" fill="none" stroke="#8e1eff" stroke-miterlimit="10" stroke-width="0.25"/><path d="M2274.13,137.05c-98.31,61.85-195.58,109-292,138.39-124.45,37.91-249.24,46.73-370.1,39.44a1280.69,1280.69,0,0,1-198.68-27.75c-71.75-15.92-138.67-37.36-201-57.13-72.93-23.13-140.08-44.29-201.5-56.38C945.68,161,884.09,150.33,829,149.78c-101.18-1-177.61,18.33-253.72,46.22C509,220.28,442.54,252.74,371.14,292.1c-3.57,2-7.16,3.91-10.75,5.91C286.45,338.8,195.77,355.89,107.3,366.8c-151.56,18.73-295,10.77-307.32,13.73" fill="none" stroke="#8e1eff" stroke-miterlimit="10" stroke-width="0.25"/><path d="M2274.74,130.09C2175.59,188.86,2078.6,238,1982.65,269.28c-123.19,40.19-247.45,52-368.6,47.13-67.93-2.85-135.31-11.09-199.36-25.58-71.63-16.14-137.59-39.24-198.9-60.63C1144.62,205.37,1079,182.35,1018,168.81c-64.6-14.31-127.57-27-183.41-26.33-101.19,1.19-174.74,26.62-250.33,57.15-66,26.69-134.31,59.86-207.23,96.74-3.66,1.86-7.36,3.69-11.05,5.53C290,340,199.09,352.36,109.73,361.17c-150,14.8-293.15,7.6-311.67,12" fill="none" stroke="#8e1eff" stroke-miterlimit="10" stroke-width="0.25"/><path d="M2275.34,123c-100,55.71-196.69,106.76-292.25,140-121.92,42.47-245.7,57.32-367.15,54.87-68-1.52-135.82-8.62-200-23.44-71.49-16.39-136.52-41.15-196.78-64.15C1149.7,203.81,1085.69,179,1025,163.89,961,148,896.65,133.18,840.05,135.05,738.9,138.38,668.15,170,593.13,203.19c-65.85,29.11-135.93,63-210.3,97.43-3.78,1.75-7.56,3.44-11.36,5.17-78,35.37-169.11,43.09-259.38,49.77C-36.26,366.51-179.26,360-204,365.91" fill="none" stroke="#8e1eff" stroke-miterlimit="10" stroke-width="0.25"/><path d="M2276,115.86c-100.85,52.64-197.24,105.66-292.4,141-120.68,44.76-243.94,62.65-365.69,62.65-68-.18-136.32-6.17-200.73-21.28-71.34-16.64-135.43-43.05-194.68-67.72-67.68-28.19-130.13-54.84-190.52-71.5-63.42-17.48-129.05-34.46-186.43-31.38C744.43,133,676.52,170.91,602,206.73c-65.65,31.57-137.56,66.13-213.38,98.15-3.87,1.64-7.76,3.2-11.65,4.79-80.06,32.67-171.33,35.76-262.56,40.25-146.68,7.2-289.56,1.22-320.42,8.65" fill="none" stroke="#8e1eff" stroke-miterlimit="10" stroke-width="0.25"/><path d="M2276.66,108.66c-101.7,49.6-197.81,104.55-292.56,141.88-119.42,47-242.2,68-364.24,70.43-68.08,1.14-136.84-3.71-201.41-19.14-71.22-16.89-134.36-44.95-192.6-71.29C1159.9,200.71,1099,172.17,1039,153.94,976.11,134.85,909.19,115.69,851,120,750,127.54,684.85,171.76,610.88,210.23c-65.43,34-139.19,69.28-216.49,98.9-4,1.53-8,2.95-11.94,4.42-82.09,30-173.54,28.46-265.72,30.72-145,3.53-287.76-2-324.82,7" fill="none" stroke="#8e1eff" stroke-miterlimit="10" stroke-width="0.25"/><path d="M2277.35,101.47C2174.8,148,2079,204.94,1984.64,244.32c-118.18,49.33-240.44,73.42-362.8,78.27-68.12,2.49-137.34-1.23-202.12-17-71.06-17.15-133.29-46.87-190.49-74.93C1165,199.2,1105.71,168.77,1046,149c-62.27-20.69-130.52-42.08-189.45-36.47-101,9.6-163.32,60.18-236.78,101.32-65.24,36.53-140.85,72.43-219.57,99.68-4.07,1.41-8.16,2.72-12.26,4.06-84.13,27.24-175.71,21.21-268.88,21.16-143.3-.06-286-5.16-329.22,5.25" fill="none" stroke="#8e1eff" stroke-miterlimit="10" stroke-width="0.25"/><path d="M2278,94.25c-103.41,43.5-198.94,102.39-292.9,143.87-117,51.63-238.71,79.05-361.37,86.16-68.16,3.94-137.85,1.24-202.79-14.81-70.94-17.39-132.25-48.77-188.39-78.57-62.5-33.15-120.24-65.48-179.58-86.91-61.68-22.27-131.26-45.93-191-39.06-101,11.64-160.46,68.71-233.38,112.51C563.64,256.49,486.14,293,406,317.92c-4.17,1.3-8.36,2.48-12.54,3.68-86.17,24.54-177.93,14-272.06,11.59-141.6-3.58-284.19-8.37-333.59,3.55" fill="none" stroke="#8e1eff" stroke-miterlimit="10" stroke-width="0.25"/><path d="M2278.77,87c-104.27,40.45-199.5,101.3-293.07,144.88-115.69,53.9-237,84.52-359.93,94.07-68.22,5.3-138.35,3.71-203.5-12.66-70.81-17.66-131.19-50.68-186.32-82.23C1175.18,196.32,1119,162,1060,139,999,115.11,928.18,90.77,867.55,97.35c-101.15,11-157.6,77.26-230,123.73-64.8,41.6-144.21,78.77-225.78,101.32-4.28,1.19-8.56,2.23-12.83,3.3-88.24,21.84-180.11,6.77-275.23,2-139.9-7-282.41-11.62-338,1.85" fill="none" stroke="#8e1eff" stroke-miterlimit="10" stroke-width="0.25"/><path d="M2279.52,79.82c-105.13,37.4-200.11,100.21-293.24,145.93a1039.83,1039.83,0,0,1-358.5,102c-68.26,6.66-138.87,6.22-204.19-10.48-70.66-17.93-130.17-52.58-184.22-85.92-59.06-36.43-113.65-72.67-172.27-97.34-60.53-25.48-132.72-53.76-194-44.24-100.89,15.68-154.73,85.87-226.64,135C581.87,269,500.54,306.75,417.55,326.94c-4.37,1.06-8.76,2-13.12,2.94-90.28,19.12-182.3-.42-278.4-7.66-138.18-10.43-280.63-14.87-342.41.13" fill="none" stroke="#8e1eff" stroke-miterlimit="10" stroke-width="0.25"/><path d="M2280.28,72.61c-106,34.31-200.7,99.1-293.43,147-113.26,58.49-233.46,95.51-357.06,110-68.33,8-139.41,8.72-204.91-8.32-70.53-18.2-129.12-54.49-182.12-89.62-57.38-38.06-110.37-76.26-168.64-102.59-60-27.09-133.46-57.74-195.53-46.85C777.75,99.93,726.75,176.77,655.33,228.62c-64.37,46.73-147.61,85.13-232,103-4.48.95-9,1.76-13.44,2.56-92.31,16.39-184.5-7.58-281.59-17.34-136.52-13.74-278.85-18.12-346.81-1.6" fill="none" stroke="#8e1eff" stroke-miterlimit="10" stroke-width="0.25"/><path d="M2281.06,65.41c-106.84,31.23-201.31,98-293.6,148.05-112.06,60.79-231.71,101-355.61,118.07-68.37,9.38-139.91,11.22-205.6-6.13-70.39-18.47-128.13-56.39-180-93.36-55.7-39.68-107.07-79.89-165-107.9C1021.83,95.43,947,62.41,884.14,74.65c-100.8,19.65-149,103.2-219.86,157.75C600.13,281.73,515,320.7,429.18,336.22c-4.6.84-9.16,1.52-13.73,2.18-94.36,13.66-186.73-14.72-284.78-27.08-134.85-17-277.06-21.39-351.22-3.34" fill="none" stroke="#8e1eff" stroke-miterlimit="10" stroke-width="0.25"/><path d="M2281.83,58.2c-107.71,28.15-201.91,96.88-293.78,149.14-110.86,63.08-230,106.61-354.18,126.14-68.43,10.75-140.44,13.76-206.31-3.92-70.27-18.75-127.14-58.29-178-97.1-54.06-41.3-103.79-83.55-161.34-113.22-58.84-30.33-134.95-65.78-198.61-52.12-100.8,21.6-146.09,112-216.5,169.19-63.9,52-151,91.47-238.22,104.68-4.69.72-9.37,1.27-14,1.81C324.51,353.69,231.92,321,133,306-.26,285.72-142.32,281.28-222.66,300.9" fill="none" stroke="#8e1eff" stroke-miterlimit="10" stroke-width="0.25"/><path d="M2282.63,51c-108.56,25-202.54,95.76-294,150.24-109.67,65.35-228.25,112-352.76,134.26-68.5,12-140.93,16.3-207-1.73-70.14-19-126.15-60.19-175.85-100.87-52.41-42.93-100.53-87.19-157.71-118.55-58.3-32-135.72-69.86-200.13-54.8C794.46,83.11,752.05,180.29,682.1,240.25c-63.66,54.57-152.71,94.64-241.33,105.53-4.8.58-9.57,1-14.34,1.42C328,355.33,235.18,318.28,135.3,300.53c-131.62-23.38-273.53-28-360-6.81" fill="none" stroke="#8e1eff" stroke-miterlimit="10" stroke-width="0.25"/><path d="M2283.44,43.78C2174,65.69,2080.29,138.37,1989.29,195.12c-108.5,67.64-226.52,117.63-351.33,142.4-68.54,13.41-141.47,18.86-207.72.5-70-19.29-125.21-62.08-173.76-104.67-50.79-44.54-97.24-90.85-154.06-123.91C1044.71,75.87,965.94,35.49,900.75,52,800,77.49,760.47,181.55,691,244.24c-63.42,57.23-154.4,97.82-244.46,106.4-4.89.47-9.77.79-14.63,1-100.52,5.36-193.56-36-294.32-56.52-130-26.52-271.74-31.28-364.47-8.57" fill="none" stroke="#8e1eff" stroke-miterlimit="10" stroke-width="0.25"/><path d="M2284.26,36.57C2174,55.36,2080.45,130,1989.93,189,1882.61,258.93,1765.16,312.25,1640,339.57c-68.6,14.8-142,21.41-208.41,2.7-69.87-19.56-124.26-64-171.66-108.45-49.18-46.13-94-94.53-150.4-129.29-57.17-35.2-137.24-78.08-203.19-60.13C805.59,71.82,769,182.83,700,248.25c-63.17,59.9-156.08,101-247.56,107.28-5,.34-10,.54-14.92.67-102.57,2.56-195.9-43-297.53-66.43C11.44,260.16-130,255.16-228.9,279.43" fill="none" stroke="#8e1eff" stroke-miterlimit="10" stroke-width="0.25"/><path d="M2285.06,29.35c-111.15,15.64-204.48,92.26-294.5,153.51-106.19,72.23-223,128.92-348.49,158.81-68.67,16.18-142.5,24-209.13,4.94-69.73-19.84-123.32-65.86-169.59-112.27-47.59-47.75-90.7-98.21-146.76-134.68-56.63-36.82-138-82.24-204.72-62.81-100.79,29.34-134.46,147.32-203,215.49C646,314.9,551.1,356.49,458.18,360.48c-5.12.22-10.18.28-15.21.27-104.62-.23-198.29-50.05-300.72-76.36-127.07-32.65-268.19-37.95-373.31-12.11" fill="none" stroke="#8e1eff" stroke-miterlimit="10" stroke-width="0.25"/><path d="M2285.89,22.13c-112,12.46-205.14,91.06-294.71,154.61-105,74.53-221.29,134.62-347.06,167.05-68.71,17.59-143,26.56-209.82,7.17-69.61-20.12-122.43-67.74-167.5-116.08-46-49.38-87.53-101.81-143.12-140.1C1067.5,56.4,984.87,8.34,917.43,29.25,816.62,60.53,785.89,185.52,717.8,256.44c-62.63,65.25-159.44,107.34-253.8,109-5.2.1-10.37,0-15.53-.12-106.69-3-200.71-57.07-303.9-86.36-125.65-35.65-266.41-41.3-377.74-13.86" fill="none" stroke="#8e1eff" stroke-miterlimit="10" stroke-width="0.25"/><path d="M2286.72,14.88c-112.88,9.29-205.8,89.85-294.88,155.69-103.93,76.81-219.58,140.32-345.65,175.3-68.77,19-143.54,29.15-210.54,9.44-69.48-20.4-121.53-69.64-165.4-119.93-44.46-51-84.24-105.54-139.45-145.53C1075.18,49.81,991.2-.81,923,21.62,822.15,54.8,794.53,186.92,726.78,260.53c-62.25,68-161.1,110.51-256.91,109.87-5.32,0-10.57-.21-15.82-.5C345.31,364,250.87,305.84,147,273.54c-124.3-38.64-264.63-44.67-382.15-15.66" fill="none" stroke="#8e1eff" stroke-miterlimit="10" stroke-width="0.25"/><path d="M2287.56,7.64C2173.82,13.76,2081,96.19,1992.5,164.43c-102.89,79-217.83,146-344.22,183.59-68.82,20.41-144.07,31.74-211.27,11.71-69.33-20.66-120.68-71.51-163.3-123.76-42.92-52.59-81-109.31-135.81-151-55.05-41.7-140.41-94.88-209.31-70.93C827.67,49.14,803,188.32,735.72,264.72c-62,70.67-162.73,113.55-260,110.73q-8.12-.26-16.11-.89c-110.79-8.72-205.71-71-310.29-106.41-123-41.61-262.87-48-386.58-17.46" fill="none" stroke="#8e1eff" stroke-miterlimit="10" stroke-width="0.25"/><path d="M2288.4.38c-114.61,2.89-207.21,87.4-295.24,157.88-101.69,81.4-216.1,151.76-342.77,191.93-68.89,21.82-144.58,34.35-212,13.95-69.21-20.93-119.81-73.41-161.22-127.61S1199.53,123.46,1145,80.08,1003.81-19.06,934.18,6.41c-101,37-122.7,183.25-189.49,262.46C682.9,342.2,580.27,385.71,481.53,380.46c-120.08-6.37-219.63-77.41-329.9-117.79-121.72-44.55-261.09-51.42-391-19.25" fill="none" stroke="#8e1eff" stroke-miterlimit="10" stroke-width="0.25"/></g></svg>