<?xml version="1.0"?>
<svg width="192" height="192" xmlns="http://www.w3.org/2000/svg" aria-label="Threads">
 <g class="layer">
  <rect fill="#0f0f0f" height="195" id="svg_9" width="212" x="-7.6" y="-2.8"/>
  <path class="x19hqcy" d="m144.35,88.19c-0.83,-0.4 -1.67,-0.78 -2.52,-1.14c-1.48,-27.31 -16.4,-42.94 -41.46,-43.11c-0.11,0 -0.22,0 -0.34,0c-14.98,0 -27.45,6.4 -35.12,18.04l13.78,9.45c5.73,-8.69 14.73,-10.55 21.35,-10.55c0.08,0 0.15,0 0.23,0.01c8.25,0.05 14.47,2.45 18.5,7.12c2.93,3.41 4.89,8.11 5.87,14.05c-7.32,-1.24 -15.23,-1.62 -23.69,-1.14c-23.82,1.38 -39.13,15.27 -38.1,34.57c0.52,9.79 5.4,18.22 13.74,23.72c7.04,4.65 16.12,6.93 25.55,6.41c12.46,-0.68 22.23,-5.43 29.05,-14.12c5.18,-6.6 8.45,-15.16 9.9,-25.93c5.94,3.58 10.34,8.29 12.77,13.96c4.13,9.64 4.37,25.47 -8.55,38.38c-11.32,11.31 -24.92,16.2 -45.49,16.35c-22.81,-0.17 -40.06,-7.49 -51.27,-21.74c-10.5,-13.35 -15.93,-32.64 -16.13,-57.32c0.2,-24.68 5.63,-43.97 16.13,-57.32c11.21,-14.26 28.46,-21.57 51.27,-21.74c22.98,0.17 40.53,7.52 52.17,21.85c5.71,7.02 10.02,15.86 12.86,26.16l16.14,-4.31c-3.44,-12.68 -8.85,-23.6 -16.21,-32.67c-14.93,-18.36 -36.77,-27.77 -64.9,-27.97l-0.11,0c-28.08,0.19 -49.67,9.64 -64.17,28.08c-12.91,16.41 -19.57,39.24 -19.79,67.85l0,0.07l0,0.07c0.22,28.61 6.88,51.44 19.79,67.85c14.5,18.44 36.09,27.89 64.17,28.08l0.11,0c24.96,-0.17 42.55,-6.71 57.05,-21.19c18.96,-18.94 18.39,-42.69 12.14,-57.27c-4.48,-10.45 -13.03,-18.94 -24.72,-24.55zm-43.1,40.52c-10.44,0.58 -21.29,-4.1 -21.82,-14.14c-0.4,-7.44 5.3,-15.74 22.46,-16.73c1.97,-0.12 3.9,-0.17 5.79,-0.17c6.24,0 12.07,0.6 17.37,1.76c-1.98,24.71 -13.58,28.72 -23.8,29.28z" fill="#ffffff" id="svg_10"/>
 </g>
</svg>